# xmcd CD database file
#
# Track frame offsets:
#	150
#	11612
#	21764
#	33783
#	44520
#	60579
#	74883
#	86679
#	98224
#	107596
#	122317
#	134642
#	142955
#	158679
#	172342
#	178800
#
# Disc length: 2575 seconds
#
# Revision: 0
# Processed by: cddbd v1.5.1PL2 Copyright (c) Steve Scherf et al.
# Submitted via: CDex 1.51
#
DISCID=dd0a0d10
DTITLE=Lost Highway - Lost 'N' Found
DYEAR=2005
DGENRE=Country
TTITLE0=Sea of heartbreak
TTITLE1=Tennessee border
TTITLE2=Howling at the moon
TTITLE3=Runnin' bare
TTITLE4=Tear in my beer
TTITLE5=Lost 'n' found
TTITLE6=Sweet dreams
TTITLE7=Hearts made of stone
TTITLE8=In the jailhouse now
TTITLE9=Half as much
TTITLE10=North to Alaska
TTITLE11=Send mre the pillow
TTITLE12=Turn around
TTITLE13=I saw a light
TTITLE14=Chicken on a log
TTITLE15=Lost 'n' found featuring "Yamaha"
EXTD=YEAR: 2005
EXTT0=
EXTT1=
EXTT2=
EXTT3=
EXTT4=
EXTT5=
EXTT6=
EXTT7=
EXTT8=
EXTT9=
EXTT10=
EXTT11=
EXTT12=
EXTT13=
EXTT14=
EXTT15=
PLAYORDER=
